    <svg xmlns="http://www.w3.org/2000/svg" width="24" height="24" viewBox="0 0 24 24" fill="#ffffff" class="injected-svg" data-src="/icons/github-01-stroke-rounded.svg" xmlns:xlink="http://www.w3.org/1999/xlink" role="img" color="#ffffff">
    <path d="M9.50388 19.7669C9.9181 19.7669 10.2539 19.4311 10.2539 19.0169C10.2539 18.6027 9.9181 18.2669 9.50389 18.2669L9.50388 19.7669ZM7.09992 16.5675C6.85133 16.2362 6.38122 16.1691 6.04989 16.4177C5.71856 16.6663 5.65149 17.1364 5.90008 17.4678L7.09992 16.5675ZM10.2238 16.8172L10.8637 17.2083L10.2238 16.8172ZM10.0453 16.2823L10.2502 15.5608H10.2502L10.0453 16.2823ZM7.61654 10.3028L6.99678 9.8804L6.99678 9.88041L7.61654 10.3028ZM7.72543 9.70316L6.9963 9.87888L6.9963 9.87888L7.72543 9.70316ZM7.73081 7.892L7.00747 7.69379V7.69379L7.73081 7.892ZM8.10166 7.60862L8.02267 8.35445L8.10166 7.60862ZM9.50999 8.20288L9.91658 7.57266L9.91658 7.57266L9.50999 8.20288ZM10.0303 8.48172L10.1516 7.7416L10.1516 7.7416L10.0303 8.48172ZM10.622 8.37949L10.8085 9.10593H10.8085L10.622 8.37949ZM13.378 8.37949L13.1915 9.10593H13.1915L13.378 8.37949ZM13.9697 8.48172L14.091 9.22185H14.091L13.9697 8.48172ZM14.49 8.20288L14.8966 8.8331L14.49 8.20288ZM15.8983 7.60862L15.8193 6.86279L15.8983 7.60862ZM16.2692 7.892L15.5459 8.09021V8.09021L16.2692 7.892ZM16.2746 9.70315L17.0037 9.87887L17.0037 9.87887L16.2746 9.70315ZM16.3834 10.3028L15.7637 10.7251L15.7637 10.7251L16.3834 10.3028ZM13.9547 16.2823L13.7498 15.5608H13.7498L13.9547 16.2823ZM13.7762 16.8172L14.4162 16.4261L14.4162 16.4261L13.7762 16.8172ZM14.0588 21.8938H13.3088C13.3088 22.1197 13.4106 22.3335 13.5859 22.4759C13.7612 22.6183 13.9914 22.6742 14.2125 22.6279L14.0588 21.8938ZM9.94118 21.8938L9.78754 22.6279C10.0086 22.6742 10.2388 22.6183 10.4141 22.4759C10.5894 22.3335 10.6912 22.1197 10.6912 21.8938H9.94118ZM9.50389 19.0169C9.50389 18.2669 9.50437 18.2669 9.50484 18.2669C9.50499 18.2669 9.50547 18.2669 9.50577 18.2669C9.50637 18.2669 9.50696 18.2669 9.50752 18.2669C9.50865 18.2669 9.50969 18.2669 9.51064 18.2669C9.51255 18.2669 9.51412 18.267 9.51535 18.267C9.51781 18.267 9.51894 18.2671 9.51877 18.2671C9.51842 18.2671 9.5129 18.2668 9.50256 18.2659C9.48186 18.2641 9.44193 18.2595 9.38545 18.2488C9.27269 18.2274 9.0934 18.1811 8.86851 18.0814C8.42382 17.8841 7.77413 17.4661 7.09992 16.5675L5.90008 17.4678C6.72587 18.5684 7.57812 19.15 8.26037 19.4526C8.59895 19.6027 8.88938 19.6814 9.10548 19.7225C9.21343 19.743 9.30271 19.7541 9.37011 19.76C9.40382 19.763 9.43208 19.7647 9.45449 19.7657C9.4657 19.7662 9.47546 19.7665 9.4837 19.7666C9.48783 19.7667 9.49157 19.7668 9.49494 19.7668C9.49662 19.7668 9.49821 19.7669 9.4997 19.7669C9.50045 19.7669 9.50117 19.7669 9.50186 19.7669C9.50221 19.7669 9.50272 19.7669 9.50289 19.7669C9.50339 19.7669 9.50388 19.7669 9.50389 19.0169ZM10.6912 17.7819C10.6912 17.5783 10.749 17.3961 10.8637 17.2083L9.58381 16.4261C9.34979 16.809 9.19118 17.2585 9.19118 17.7819H10.6912ZM10.8637 17.2083C11.1868 16.6796 11.0411 15.7853 10.2502 15.5608L9.84052 17.0038C9.66769 16.9547 9.57693 16.824 9.54623 16.7282C9.517 16.6369 9.52208 16.5271 9.58381 16.4261L10.8637 17.2083ZM10.2502 15.5608C9.3952 15.3181 8.80505 15.0356 8.4127 14.5928C8.03553 14.1672 7.75 13.487 7.75 12.2465H6.25C6.25 13.7165 6.5921 14.8001 7.29008 15.5877C7.97288 16.3582 8.9054 16.7383 9.84052 17.0038L10.2502 15.5608ZM7.75 12.2465C7.75 11.7056 7.92053 11.1885 8.23629 10.7252L6.99678 9.88041C6.52659 10.5703 6.25 11.3782 6.25 12.2465H7.75ZM8.45455 9.52744C8.33596 9.03537 8.33172 8.53698 8.45414 8.09021L7.00747 7.69379C6.80863 8.41944 6.82737 9.17792 6.9963 9.87888L8.45455 9.52744ZM8.02267 8.35445C8.14419 8.36732 8.49339 8.43955 9.10339 8.8331L9.91658 7.57266C9.16166 7.08561 8.59062 6.90621 8.18066 6.86279L8.02267 8.35445ZM9.10339 8.8331C9.2291 8.9142 9.35317 8.99468 9.46079 9.05477C9.56838 9.11483 9.7216 9.19114 9.909 9.22185L10.1516 7.7416C10.2209 7.75296 10.248 7.77634 10.192 7.74507C10.1361 7.71382 10.059 7.66455 9.91658 7.57266L9.10339 8.8331ZM9.90899 9.22185C10.0989 9.25297 10.2712 9.22809 10.3923 9.20501C10.5148 9.18169 10.6602 9.144 10.8085 9.10593L10.4355 7.65305C10.268 7.69603 10.1766 7.71914 10.1117 7.7315C10.0454 7.74412 10.0798 7.72983 10.1516 7.7416L9.90899 9.22185ZM10.8085 9.10593C11.1791 9.01079 11.5613 8.95914 12 8.95914V7.45914C11.4359 7.45914 10.9284 7.5265 10.4355 7.65305L10.8085 9.10593ZM12 8.95914C12.4387 8.95914 12.8209 9.01078 13.1915 9.10593L13.5645 7.65304C13.0716 7.5265 12.5641 7.45914 12 7.45914V8.95914ZM13.1915 9.10593C13.3398 9.144 13.4852 9.18169 13.6077 9.20501C13.7288 9.22808 13.9011 9.25297 14.091 9.22185L13.8484 7.7416C13.9203 7.72983 13.9546 7.74412 13.8883 7.7315C13.8234 7.71913 13.732 7.69603 13.5645 7.65304L13.1915 9.10593ZM14.091 9.22185C14.2784 9.19114 14.4316 9.11483 14.5392 9.05477C14.6468 8.99468 14.7709 8.91421 14.8966 8.8331L14.0834 7.57266C13.941 7.66455 13.8639 7.71382 13.808 7.74507C13.752 7.77634 13.7791 7.75296 13.8484 7.7416L14.091 9.22185ZM14.8966 8.8331C15.5066 8.43955 15.8558 8.36732 15.9773 8.35445L15.8193 6.86279C15.4094 6.90621 14.8383 7.08561 14.0834 7.57266L14.8966 8.8331ZM15.5459 8.09021C15.6683 8.53698 15.664 9.03536 15.5455 9.52743L17.0037 9.87887C17.1726 9.1779 17.1914 8.41944 16.9925 7.69379L15.5459 8.09021ZM15.7637 10.7251C16.0795 11.1885 16.25 11.7056 16.25 12.2465H17.75C17.75 11.3782 17.4734 10.5703 17.0032 9.88037L15.7637 10.7251ZM16.25 12.2465C16.25 13.487 15.9645 14.1672 15.5873 14.5928C15.195 15.0356 14.6048 15.3181 13.7498 15.5608L14.1595 17.0038C15.0946 16.7383 16.0271 16.3582 16.7099 15.5877C17.4079 14.8001 17.75 13.7165 17.75 12.2465H16.25ZM13.7498 15.5608C12.9589 15.7853 12.8132 16.6796 13.1363 17.2083L14.4162 16.4261C14.4779 16.5271 14.483 16.6369 14.4538 16.7282C14.4231 16.824 14.3323 16.9547 14.1595 17.0038L13.7498 15.5608ZM13.1363 17.2083C13.251 17.3961 13.3088 17.5783 13.3088 17.7819H14.8088C14.8088 17.2585 14.6502 16.809 14.4162 16.4261L13.1363 17.2083ZM8.23629 10.7252C8.27496 10.6684 8.33074 10.5885 8.37157 10.5201C8.41844 10.4416 8.48354 10.3185 8.51294 10.1564C8.54228 9.99467 8.52468 9.85677 8.50865 9.76732C8.49463 9.6891 8.47075 9.59463 8.45455 9.52744L6.9963 9.87888C7.0015 9.90043 7.00669 9.92177 7.01087 9.93905C7.01527 9.95722 7.01891 9.97237 7.02207 9.98585C7.02522 9.9993 7.02753 10.0095 7.02927 10.0176C7.03101 10.0257 7.03185 10.0301 7.03217 10.0319C7.03248 10.0336 7.03202 10.0313 7.03135 10.0259C7.03068 10.0204 7.02968 10.0107 7.02914 9.99781C7.02858 9.98471 7.0285 9.96835 7.02967 9.94938C7.03084 9.93024 7.03319 9.90988 7.03703 9.8887C7.04087 9.86752 7.04584 9.84757 7.0515 9.82912C7.05711 9.81084 7.06299 9.79541 7.06819 9.78317C7.07332 9.7711 7.07774 9.76224 7.08041 9.75714C7.08303 9.75213 7.08438 9.74995 7.08355 9.75134C7.08271 9.75275 7.08046 9.75645 7.07606 9.76326C7.07166 9.77007 7.06596 9.7787 7.05833 9.79006C7.05068 9.80144 7.04198 9.81422 7.03151 9.82956C7.02158 9.84409 7.00916 9.86224 6.99678 9.8804L8.23629 10.7252ZM15.5455 9.52742C15.5293 9.59462 15.5054 9.68908 15.4914 9.7673C15.4753 9.85674 15.4577 9.99464 15.487 10.1564C15.5164 10.3185 15.5815 10.4415 15.6284 10.5201C15.6692 10.5885 15.725 10.6684 15.7637 10.7251L17.0032 9.88037C16.9908 9.86221 16.9784 9.84407 16.9685 9.82954C16.958 9.8142 16.9493 9.80142 16.9417 9.79004C16.934 9.77869 16.9283 9.77006 16.9239 9.76325C16.9195 9.75644 16.9173 9.75275 16.9165 9.75134C16.9156 9.74995 16.917 9.75213 16.9196 9.75715C16.9223 9.76225 16.9267 9.77111 16.9318 9.78318C16.937 9.79542 16.9429 9.81086 16.9485 9.82914C16.9542 9.84758 16.9591 9.86754 16.963 9.88872C16.9668 9.90989 16.9692 9.93026 16.9703 9.94939C16.9715 9.96836 16.9714 9.98472 16.9709 9.99782C16.9703 10.0107 16.9693 10.0204 16.9686 10.0259C16.968 10.0313 16.9675 10.0336 16.9678 10.0319C16.9682 10.0301 16.969 10.0257 16.9707 10.0176C16.9725 10.0095 16.9748 9.99929 16.9779 9.98584C16.9811 9.97236 16.9847 9.95721 16.9891 9.93904C16.9933 9.92175 16.9985 9.90042 17.0037 9.87887L15.5455 9.52742ZM15.9773 8.35445C15.9541 8.35691 15.9071 8.3583 15.846 8.34237C15.7824 8.32578 15.7199 8.29458 15.666 8.25054C15.5627 8.166 15.5428 8.07911 15.5459 8.09021L16.9925 7.69379C16.9428 7.5122 16.8399 7.27277 16.6155 7.0893C16.3719 6.89012 16.0819 6.83498 15.8193 6.86279L15.9773 8.35445ZM8.45414 8.09021C8.45718 8.07911 8.43734 8.166 8.33395 8.25054C8.28009 8.29458 8.21759 8.32578 8.15398 8.34237C8.09291 8.3583 8.04593 8.35691 8.02267 8.35445L8.18066 6.86279C7.91808 6.83498 7.62807 6.89012 7.38447 7.0893C7.16007 7.27277 7.05723 7.5122 7.00747 7.69379L8.45414 8.09021ZM2.75 12.106C2.75 6.99732 6.89137 2.85596 12 2.85596V1.35596C6.06294 1.35596 1.25 6.1689 1.25 12.106H2.75ZM12 2.85596C17.1086 2.85596 21.25 6.99732 21.25 12.106H22.75C22.75 6.1689 17.9371 1.35596 12 1.35596V2.85596ZM21.25 12.106C21.25 16.5609 18.0999 20.2818 13.9052 21.1597L14.2125 22.6279C19.088 21.6075 22.75 17.2852 22.75 12.106H21.25ZM13.3088 17.7819V21.8938H14.8088V17.7819H13.3088ZM10.0948 21.1597C5.90007 20.2818 2.75 16.5609 2.75 12.106H1.25C1.25 17.2852 4.912 21.6075 9.78754 22.6279L10.0948 21.1597ZM10.6912 21.8938V17.7819H9.19118V21.8938H10.6912Z" fill="#ffffff"></path>
    </svg>